<?xml version="1.0" encoding="UTF-8"?>
<!DOCTYPE svg PUBLIC "-//W3C//DTD SVG 1.1//EN" "http://www.w3.org/Graphics/SVG/1.1/DTD/svg11.dtd">
<!-- Creator: CorelDRAW X7 -->
<svg xmlns="http://www.w3.org/2000/svg" xml:space="preserve" width="297mm" height="420mm" version="1.1" style="shape-rendering:geometricPrecision; text-rendering:geometricPrecision; image-rendering:optimizeQuality; fill-rule:evenodd; clip-rule:evenodd"
viewBox="0 0 29700 42000"
 xmlns:xlink="http://www.w3.org/1999/xlink"
 data-name="Layer 1">
 <defs>
  <style type="text/css">
   <![CDATA[
    .fil0 {fill:white}
   ]]>
  </style>
 </defs>
 <g id="Camada_x0020_1">
  <metadata id="CorelCorpID_0Corel-Layer"/>
  <g id="_1060482160">
   <path class="fil0" d="M15731 26772l117 334c35,148 40,221 62,369 41,269 40,399 122,696 355,1288 1530,2367 2839,2622 2267,441 4021,-1046 4453,-2715 801,-3093 -2239,-5808 -5346,-4359 -1137,531 -1152,920 -1838,1856 -1081,-70 -1529,-10 -2532,0 -1182,-1723 -2668,-2981 -5102,-1913 -4577,2007 -1360,9158 3385,6766 779,-393 1483,-1245 1761,-2035 158,-445 110,-1350 362,-1599 325,-323 1349,-172 1717,-22zm-6425 -2201c-3576,1245 -1650,6137 1659,5062 3301,-1072 1670,-6221 -1659,-5062zm9658 -62c-3481,1001 -1999,6118 1480,5165 1243,-341 2234,-1749 1809,-3355 -329,-1248 -1802,-2237 -3289,-1810z"/>
   <path class="fil0" d="M10293 11255c-452,847 -1730,4789 -1960,5872l13255 7 -1821 -6031c-727,-114 -3876,472 -4791,608 -2260,337 -2669,-108 -4683,-456z"/>
   <path class="fil0" d="M2741 21876c286,165 23790,206 24218,0 -888,-656 -4141,-1562 -5490,-1847 -6050,-1282 -13476,-750 -18728,1847z"/>
  </g>
 </g>
</svg>
