<?xml version="1.0" encoding="UTF-8"?>
<!DOCTYPE svg PUBLIC "-//W3C//DTD SVG 1.1//EN" "http://www.w3.org/Graphics/SVG/1.1/DTD/svg11.dtd">
<!-- Creator: CorelDRAW X7 -->
<svg xmlns="http://www.w3.org/2000/svg" xml:space="preserve" width="297mm" height="420mm" version="1.1" style="shape-rendering:geometricPrecision; text-rendering:geometricPrecision; image-rendering:optimizeQuality; fill-rule:evenodd; clip-rule:evenodd"
viewBox="0 0 29700 42000"
 xmlns:xlink="http://www.w3.org/1999/xlink"
 data-name="Layer 1">
 <defs>
  <style type="text/css">
   <![CDATA[
    .fil0 {fill:white}
   ]]>
  </style>
 </defs>
 <g id="Camada_x0020_1">
  <metadata id="CorelCorpID_0Corel-Layer"/>
  <g id="_1060470992">
   <path class="fil0" d="M7619 18350c-63,145 -247,389 -350,560 -114,188 -206,378 -310,596 -172,359 -234,184 -492,414 -167,149 -304,305 -366,589 -56,256 -15,521 97,732 201,380 278,119 174,695 -332,1836 -1394,3582 -2647,4802l-984 879c355,445 1253,1161 2103,1322 1112,210 1743,-556 2114,-1231 917,-1666 805,-3982 754,-6029 9,-24 492,-325 501,-908 10,-618 -393,-569 -167,-1029 869,-1769 3705,-2628 5571,-3087 389,-95 771,-169 1164,-242 418,-77 875,-225 1154,73 309,331 85,777 -238,891 -276,97 -902,156 -1226,227 -1097,238 -3594,926 -4270,1509 181,125 3434,1076 4131,1293 542,169 888,380 1473,195l8358 -2557c473,-142 2552,-693 2700,-927 365,-576 -404,-747 -783,-864 -460,-141 -919,-281 -1386,-424 -956,-293 -1861,-579 -2812,-861 -1864,-552 -3687,-1141 -5547,-1699 -660,-198 -743,-359 -1455,-133l-9748 2983c-388,117 -1138,224 -1254,560 -210,609 534,690 939,812 938,282 1880,571 2802,859z"/>
   <path class="fil0" d="M20957 20187c-810,186 -4979,1606 -5534,1619 -499,11 -3343,-950 -4208,-1203 -370,-109 -1042,-280 -1354,-426 -197,143 -405,997 -467,1210 -456,1562 -477,2340 975,3533 2707,2224 7172,2256 9981,-24 438,-356 1347,-1156 1325,-2060 -13,-504 -484,-2348 -718,-2649z"/>
  </g>
 </g>
</svg>
