<?xml version="1.0" encoding="UTF-8"?>
<!DOCTYPE svg PUBLIC "-//W3C//DTD SVG 1.1//EN" "http://www.w3.org/Graphics/SVG/1.1/DTD/svg11.dtd">
<!-- Creator: CorelDRAW X7 -->
<svg xmlns="http://www.w3.org/2000/svg" xml:space="preserve" width="297mm" height="420mm" version="1.1" style="shape-rendering:geometricPrecision; text-rendering:geometricPrecision; image-rendering:optimizeQuality; fill-rule:evenodd; clip-rule:evenodd"
viewBox="0 0 29700 42000"
 xmlns:xlink="http://www.w3.org/1999/xlink"
 data-name="Layer 1">
 <defs>
  <style type="text/css">
   <![CDATA[
    .fil2 {fill:#00C7D6}
    .fil0 {fill:#31AAD6}
    .fil1 {fill:gray}
   ]]>
  </style>
 </defs>
 <g id="Camada_x0020_1">
  <metadata id="CorelCorpID_0Corel-Layer"/>
  <path class="fil0" d="M22255 19276c1129,-3809 -1128,-7886 -4827,-9213l29 11 0 1063c52,-40 109,-74 170,-100 93,-40 196,-62 304,-62 214,0 407,87 547,227 140,140 227,333 227,547 0,214 -87,408 -227,548 -140,140 -333,227 -547,227 -108,0 -211,-23 -304,-63 -61,-26 -118,-59 -170,-99l0 2630c52,-40 109,-73 170,-99 93,-40 196,-62 304,-62 214,0 407,86 547,226 140,140 227,334 227,548 0,214 -87,407 -227,547 -140,141 -333,227 -547,227 -108,0 -211,-22 -304,-62 -61,-26 -118,-59 -170,-99l0 3058 423 0 0 0 0 0 0 0 0 0 0 0 0 0 1 0 0 0 0 0 0 0 1 0 0 0 0 0 1 0 0 0 1 0 0 0 1 0 0 0 0 0 1 0 0 0 1 0 1 0 0 0 1 0 0 0 1 0 0 0 1 0 0 0 1 0 0 0 1 0 0 0 11 0 0 0c404,3 341,61 620,487 153,235 325,450 475,687 31,-25 219,-419 438,-890l0 0c145,-243 165,-281 494,-284l22 0 107 0 84 0 0 0 2111 0zm-2519 -3171l-338 0 0 -1626 338 0 0 1626zm432 0l-339 0 0 -1243 339 0 0 1243zm438 0l-338 0 0 -860 338 0 0 860zm-3199 -4784l0 4c108,-134 266,-225 445,-245 -65,7 -128,24 -186,49 -84,36 -160,89 -223,154l-36 38zm0 853l0 3 36 38c63,65 139,118 223,154 78,34 164,53 255,54 -207,-3 -392,-99 -514,-249zm515 249l9 0 17 0 -17 0 -9 0zm490 -1146l-5 -4 -5 -6 10 10zm-1005 3900l0 3c108,-133 266,-224 445,-245 -65,8 -128,25 -186,50 -84,36 -160,89 -223,154l-36 38zm0 852l0 4 36 38c63,65 139,118 223,154 78,33 164,52 255,54 -207,-3 -392,-100 -514,-250zm515 250l9 0 17 0 -17 0 -9 0zm490 -1146l-5 -5 -5 -5 10 10z"/>
  <path class="fil1" d="M17357 10037c-778,-271 -1620,-421 -2507,-421 -895,0 -1758,160 -2562,450l30 -10 0 3397c51,-40 108,-73 169,-99 94,-40 196,-62 304,-62 214,0 407,86 548,226 140,141 226,334 226,548 0,214 -86,407 -226,547 -141,141 -334,227 -548,227 -108,0 -210,-22 -304,-62 -61,-26 -118,-59 -169,-99l0 1703c496,1627 1571,5251 1650,5339 436,-963 879,-1925 1328,-2898 116,-251 221,-474 334,-725 61,-135 100,-277 261,-310 242,-50 307,86 379,194 161,242 808,1143 879,1294l208 0 0 -3171 0 -125 50 53 0 -4c124,153 312,250 524,250 372,0 674,-302 674,-674 0,-372 -302,-674 -674,-674 -212,0 -400,97 -524,249l0 -3 -50 52 0 -124 0 -2855 0 -125 50 52 0 -3c124,152 312,249 524,249 372,0 674,-302 674,-674 0,-372 -302,-674 -674,-674 -212,0 -400,98 -524,250l0 -4 -50 53 0 -125 0 -1129 0 -83zm-2437 2860l11 31c3,14 3,21 6,34 3,26 3,38 11,65 33,121 143,222 266,246 212,41 376,-98 416,-254 75,-290 -209,-544 -500,-408 -106,50 -108,86 -172,174 -101,-7 -143,-1 -237,0 -110,-162 -250,-279 -477,-179 -429,187 -128,857 316,633 73,-37 139,-117 165,-191 15,-41 11,-126 34,-149 30,-31 126,-16 161,-2zm-601 -206c-335,116 -155,574 155,473 309,-100 156,-582 -155,-473zm903 -6c-325,93 -187,572 139,483 116,-32 209,-164 169,-314 -31,-117 -168,-209 -308,-169zm-811 -1241c-42,80 -162,449 -183,550l1240 1 -170 -565c-69,-10 -363,44 -449,57 -211,32 -250,-10 -438,-43zm-707 994c27,16 2227,20 2267,0 -84,-61 -388,-146 -514,-172 -566,-120 -1261,-71 -1753,172zm-1437 1200l0 4c109,-134 266,-225 446,-246 -66,8 -129,25 -187,50 -84,36 -160,89 -222,154l-37 38zm0 852l0 4 37 38c62,65 138,118 222,154 58,25 121,42 187,49 -179,-20 -337,-112 -446,-245z"/>
  <path class="fil1" d="M11494 28918c1586,122 5073,123 6683,2 570,-42 498,33 583,-540 139,-929 151,-1941 360,-2890 197,-898 636,-2101 1091,-2743 616,-868 969,-1080 1566,-2267 115,-228 216,-457 304,-688l-2204 0 -144 312c-116,251 -221,474 -334,725 -187,414 -417,835 -615,1251l-170 320c-71,148 -139,277 -356,239 -236,-42 -219,-179 -152,-320l545 -1103 120 -252c-4,-7 -8,-13 -12,-19 -161,-242 -808,-1142 -879,-1294l-104 0c-1102,2 -893,90 -1271,-487 -153,-234 -325,-450 -475,-686 -74,59 -1055,2242 -1182,2527 -72,160 -661,1513 -747,1583 -110,89 -314,68 -398,-14 -83,-81 -191,-540 -232,-667 -447,-1391 -845,-2775 -1276,-4165 -75,-240 -351,-1217 -427,-1363 -184,269 -1386,2496 -1646,2977 -74,138 -99,254 -274,286l0 0 0 0c-31,6 -67,9 -109,9l-2153 -4c237,663 576,1326 1030,1976 277,396 569,709 851,1093 457,622 902,1833 1104,2731 220,971 229,1989 369,2932 84,560 6,497 554,539zm933 -1397c5,0 10,2 14,6l33 36c-24,26 -51,49 -79,70 -29,21 -61,39 -95,54 -34,14 -72,26 -113,34 -41,8 -86,12 -135,12 -82,0 -157,-14 -225,-43 -68,-29 -127,-69 -176,-122 -49,-53 -87,-116 -114,-191 -27,-75 -41,-158 -41,-249 0,-90 14,-172 42,-246 28,-74 67,-138 117,-191 50,-53 111,-94 181,-123 70,-30 147,-44 232,-44 81,0 153,12 215,37 62,25 119,61 170,107l-25 37c-5,7 -12,10 -21,10 -7,0 -18,-6 -33,-18 -15,-12 -36,-26 -63,-41 -26,-15 -60,-28 -99,-40 -40,-13 -88,-19 -144,-19 -71,0 -136,13 -196,37 -59,25 -110,60 -153,105 -42,46 -76,102 -100,168 -24,65 -36,139 -36,221 0,84 13,158 37,224 24,66 57,121 100,167 42,45 92,80 150,104 57,24 120,37 186,37 43,0 81,-3 114,-9 33,-5 63,-14 91,-25 28,-11 54,-25 78,-41 24,-16 48,-35 71,-57 3,-2 6,-4 8,-5 3,-2 6,-2 9,-2zm709 138c57,0 108,-10 153,-30 45,-20 83,-47 114,-82 31,-35 55,-77 71,-124 17,-48 25,-99 25,-155l0 -731 85 0 0 731c0,66 -10,126 -31,183 -20,57 -50,106 -89,148 -38,42 -85,75 -141,99 -55,24 -118,36 -187,36 -69,0 -131,-12 -186,-36 -56,-24 -103,-57 -142,-99 -38,-42 -68,-91 -89,-148 -20,-57 -31,-117 -31,-183l0 -731 86 0 0 731c0,55 9,106 25,154 17,47 40,89 71,124 31,35 69,63 114,83 45,20 95,30 152,30zm1357 -978c-5,9 -13,14 -22,14 -7,0 -16,-5 -28,-15 -11,-11 -27,-22 -46,-35 -20,-12 -44,-24 -73,-34 -30,-11 -66,-16 -109,-16 -43,0 -80,6 -113,18 -32,12 -60,29 -82,50 -22,22 -38,46 -50,74 -11,28 -17,57 -17,88 0,40 8,73 25,99 17,26 40,49 68,67 27,18 59,34 95,46 35,13 71,25 109,38 37,12 73,25 109,40 35,15 67,33 94,56 28,22 51,49 68,82 17,32 25,73 25,122 0,49 -8,96 -25,139 -17,44 -42,82 -74,115 -33,32 -72,57 -119,76 -47,19 -100,28 -160,28 -78,0 -146,-14 -202,-41 -56,-28 -105,-66 -148,-113l24 -37c6,-9 14,-13 23,-13 5,0 12,4 19,10 8,7 18,15 29,25 11,10 24,20 40,32 15,11 34,22 54,31 21,10 44,18 71,25 27,7 57,10 91,10 47,0 89,-7 126,-21 36,-15 68,-34 93,-58 25,-25 45,-54 58,-88 13,-33 20,-69 20,-108 0,-42 -8,-76 -25,-103 -17,-27 -40,-50 -68,-68 -28,-18 -59,-33 -94,-45 -36,-13 -72,-25 -110,-36 -37,-12 -73,-25 -109,-40 -35,-14 -67,-33 -95,-55 -27,-23 -50,-51 -67,-85 -17,-33 -25,-75 -25,-126 0,-40 7,-78 22,-115 15,-36 37,-69 66,-97 29,-28 65,-51 108,-68 42,-17 91,-25 145,-25 62,0 117,10 166,29 48,20 93,49 133,89l-20 39zm1089 -144l0 73 -416 0 0 1110 -86 0 0 -1110 -418 0 0 -73 920 0zm1180 591c0,91 -14,174 -41,249 -27,74 -66,137 -115,190 -50,53 -109,93 -179,122 -69,29 -146,43 -229,43 -84,0 -160,-14 -229,-43 -69,-29 -129,-69 -178,-122 -50,-53 -88,-116 -116,-190 -27,-75 -41,-158 -41,-249 0,-91 14,-173 41,-248 28,-74 66,-138 116,-190 49,-53 109,-94 178,-123 69,-29 145,-43 229,-43 83,0 160,14 229,43 70,28 129,69 179,122 49,53 88,117 115,191 27,75 41,157 41,248zm-89 0c0,-82 -11,-156 -34,-222 -23,-66 -55,-122 -97,-167 -42,-46 -92,-81 -150,-105 -59,-25 -124,-37 -194,-37 -70,0 -135,12 -193,37 -59,24 -109,59 -151,105 -42,45 -75,101 -98,167 -23,66 -35,140 -35,222 0,83 12,157 35,223 23,65 56,121 98,167 42,45 92,80 151,104 58,24 123,36 193,36 70,0 135,-12 194,-36 58,-24 108,-59 150,-104 42,-46 74,-102 97,-167 23,-66 34,-140 34,-223zm930 247c8,16 15,33 21,51 4,-9 7,-17 11,-26 4,-9 8,-18 13,-25l464 -822c4,-7 9,-12 14,-13 4,-2 10,-3 18,-3l59 0 0 1183 -75 0 0 -1008c0,-7 1,-14 1,-22 0,-8 0,-15 1,-23l-465 825c-7,15 -19,22 -33,22l-13 0c-15,0 -26,-7 -34,-22l-478 -827c2,16 3,32 3,47l0 1008 -76 0 0 -1183 60 0c7,0 14,1 18,3 5,1 9,6 13,13l478 822z"/>
  <path class="fil2" d="M12791 13392c372,0 674,302 674,674 0,372 -302,674 -674,674 -211,0 -400,-97 -524,-250l0 4 -50 -53 0 125 0 1488 1 1c-48,-154 -86,-274 -111,-351 -39,-117 -115,-193 -323,-165 -159,21 -183,114 -246,230l-1850 3358 -2268 -1c-1088,-3902 1276,-7724 4798,-9034l-1 35 0 3439 0 125 50 -53 0 4c124,-153 313,-250 524,-250zm-3857 1638c-6,15 -25,40 -36,58 -12,19 -21,39 -32,62 -18,37 -24,19 -51,43 -18,15 -32,31 -38,61 -6,27 -2,54 10,76 21,39 29,12 18,72 -35,191 -145,372 -275,499l-102 91c37,46 130,121 218,137 116,22 181,-57 220,-127 95,-174 83,-414 78,-627 1,-2 51,-33 52,-94 1,-64 -41,-59 -17,-107 90,-183 384,-273 578,-320 41,-10 80,-18 121,-25 43,-8 91,-24 120,7 32,35 9,81 -25,93 -29,10 -94,16 -127,23 -114,25 -373,96 -444,157 19,13 357,112 429,134 57,18 93,40 153,21l868 -266c49,-15 265,-72 281,-96 37,-60 -42,-78 -82,-90 -47,-15 -95,-29 -144,-44 -99,-30 -193,-60 -292,-89 -193,-58 -383,-119 -576,-177 -68,-20 -77,-37 -151,-14l-1012 310c-40,12 -118,23 -130,58 -22,64 55,72 97,85 98,29 196,59 291,89zm1385 191c-84,19 -517,166 -574,168 -52,1 -347,-99 -437,-125 -39,-12 -108,-29 -141,-45 -20,15 -42,104 -48,126 -48,162 -50,243 101,367 281,231 745,234 1036,-3 46,-36 140,-120 138,-213 -1,-53 -50,-244 -75,-275z"/>
  <g id="_1044084656">
   <path class="fil1" d="M12910 32069l0 0c0,173 -141,315 -314,315l-1256 0c-173,0 -314,-142 -314,-315l0 0c0,-173 141,-314 314,-314l1256 0c173,0 314,141 314,314z"/>
   <path class="fil1" d="M11847 30980l0 0c0,173 -141,314 -314,314l-193 0c-173,0 -314,-141 -314,-314l0 0c0,-173 141,-314 314,-314l193 0c173,0 314,141 314,314z"/>
   <path class="fil1" d="M11847 29867l0 0c0,173 -141,314 -314,314l-193 0c-173,0 -314,-141 -314,-314l0 0c0,-173 141,-315 314,-315l193 0c173,0 314,142 314,315z"/>
   <path class="fil1" d="M14112 30980l0 0c0,173 -142,314 -315,314l-192 0c-173,0 -315,-141 -315,-314l0 0c0,-173 142,-314 315,-314l192 0c173,0 315,141 315,314z"/>
   <path class="fil1" d="M14112 29867l0 0c0,173 -142,314 -315,314l-192 0c-173,0 -315,-141 -315,-314l0 0c0,-173 142,-315 315,-315l192 0c173,0 315,142 315,315z"/>
   <path class="fil1" d="M14112 32069l0 0c0,173 -142,315 -315,315l-192 0c-173,0 -315,-142 -315,-315l0 0c0,-173 142,-314 315,-314l192 0c173,0 315,141 315,314z"/>
   <path class="fil1" d="M15313 32069l0 0c0,173 -142,315 -315,315l-192 0c-173,0 -314,-142 -314,-315l0 0c0,-173 141,-314 314,-314l192 0c173,0 315,141 315,314z"/>
   <path class="fil1" d="M16376 29867l0 0c0,173 -142,314 -314,314l-1256 0c-173,0 -314,-141 -314,-314l0 0c0,-173 141,-315 314,-315l1256 0c172,0 314,142 314,315z"/>
   <path class="fil1" d="M16376 30977l0 0c0,173 -142,314 -314,314l-1256 0c-173,0 -314,-141 -314,-314l0 0c0,-173 141,-314 314,-314l1256 0c172,0 314,141 314,314z"/>
   <path class="fil1" d="M18640 32069l0 0c0,173 -141,315 -314,315l-1256 0c-173,0 -314,-142 -314,-315l0 0c0,-173 141,-314 314,-314l1256 0c173,0 314,141 314,314z"/>
   <path class="fil1" d="M18640 30980l0 0c0,173 -141,314 -314,314l-1256 0c-173,0 -314,-141 -314,-314l0 0c0,-173 141,-314 314,-314l1256 0c173,0 314,141 314,314z"/>
   <path class="fil1" d="M18640 29867l0 0c0,173 -141,314 -314,314l-1256 0c-173,0 -314,-141 -314,-314l0 0c0,-173 141,-315 314,-315l1256 0c173,0 314,142 314,315z"/>
  </g>
 </g>
</svg>
